# Blender v2.74 (sub 0) OBJ File: 'scene.blend'
# www.blender.org
o Room
v -8.000001 -5.999998 0.000000
v -7.999999 8.000001 0.000000
v 8.000002 7.999998 0.000000
v 7.999996 -6.000003 0.000000
v -8.000005 -5.999995 8.000000
v -7.999994 8.000005 8.000000
v 8.000004 7.999997 8.000000
v 7.999999 -6.000001 8.000000
vt 0.001001 0.001001
vt 0.001001 0.332332
vt 0.332332 0.332332
vt 0.001001 0.334334
vt 0.001001 0.665666
vt 0.332332 0.665666
vt 0.334334 0.001001
vt 0.334334 0.332332
vt 0.665666 0.332332
vt 0.665666 0.334334
vt 0.334334 0.334334
vt 0.334334 0.665666
vt 0.001001 0.667668
vt 0.001001 0.998999
vt 0.332332 0.998999
vt 0.332332 0.001001
vt 0.332332 0.334334
vt 0.665666 0.001001
vt 0.665666 0.665666
vt 0.332332 0.667668
vt 0.667668 0.001001
vt 0.667668 0.332332
vt 0.998999 0.332332
vt 0.998999 0.001001
vn 0.000000 0.000000 -1.000000
vn 1.000000 -0.000000 -0.000000
vn -0.000000 -1.000000 0.000000
vn -1.000000 0.000000 0.000000
vn 0.000000 1.000000 -0.000000
vn 0.000000 0.000000 1.000000
s off
f 6/1/1 7/2/1 8/3/1
f 2/4/2 6/5/2 5/6/2
f 3/7/3 7/8/3 6/9/3
f 3/10/4 4/11/4 8/12/4
f 8/13/5 4/14/5 1/15/5
f 5/16/1 6/1/1 8/3/1
f 1/17/2 2/4/2 5/6/2
f 2/18/3 3/7/3 6/9/3
f 7/19/4 3/10/4 8/12/4
f 5/20/5 8/13/5 1/15/5
f 4/21/6 3/22/6 2/23/6
f 1/24/6 4/21/6 2/23/6
